<svg width="20" height="19" viewBox="0 0 20 19" fill="none" xmlns="http://www.w3.org/2000/svg">
<path d="M2.875 7.40564V16.6244C2.875 16.7901 2.94085 16.9491 3.05806 17.0663C3.17527 17.1835 3.33424 17.2494 3.5 17.2494H7.24999V11.9369C7.24999 11.6882 7.34877 11.4498 7.52458 11.274C7.7004 11.0982 7.93885 10.9994 8.18749 10.9994H11.3125C11.5611 10.9994 11.7996 11.0982 11.9754 11.274C12.1512 11.4498 12.25 11.6882 12.25 11.9369V17.2494H16C16.1657 17.2494 16.3247 17.1835 16.4419 17.0663C16.5591 16.9491 16.625 16.7901 16.625 16.6244V7.40564" fill="#28DF99"/>
<path d="M18.5 9.12431L10.1754 1.15557C9.98007 0.949318 9.52343 0.946974 9.3246 1.15557L1 9.12431" fill="#28DF99"/>
<path d="M15.375 6.11651V1.62433H13.5V4.31964" fill="#28DF99"/>
<path d="M2.875 7.40564V16.6244C2.875 16.7901 2.94085 16.9491 3.05806 17.0663C3.17527 17.1835 3.33424 17.2494 3.5 17.2494H7.24999V11.9369C7.24999 11.6882 7.34877 11.4498 7.52458 11.274C7.7004 11.0982 7.93885 10.9994 8.18749 10.9994H11.3125C11.5611 10.9994 11.7996 11.0982 11.9754 11.274C12.1512 11.4498 12.25 11.6882 12.25 11.9369V17.2494H16C16.1657 17.2494 16.3247 17.1835 16.4419 17.0663C16.5591 16.9491 16.625 16.7901 16.625 16.6244V7.40564M18.5 9.12431L10.1754 1.15557C9.98007 0.949318 9.52343 0.946974 9.3246 1.15557L1 9.12431M15.375 6.11651V1.62433H13.5V4.31964" stroke="#28DF99" stroke-width="2" stroke-linecap="round" stroke-linejoin="round"/>
</svg>
