<?xml version="1.0" encoding="utf-8"?>
<svg xmlns="http://www.w3.org/2000/svg" xmlns:xlink="http://www.w3.org/1999/xlink" style="margin: auto; background: rgb(255, 255, 255); display: block; shape-rendering: auto;" width="351px" height="351px" viewBox="0 0 100 100" preserveAspectRatio="xMidYMid">
<g transform="rotate(0 50 50)">
  <rect x="42.5" y="24" rx="6.45" ry="6" width="15" height="12" fill="#28df99">
    <animate attributeName="opacity" values="1;0" keyTimes="0;1" dur="0.8s" begin="-0.7428571428571429s" repeatCount="indefinite"></animate>
  </rect>
</g><g transform="rotate(25.714285714285715 50 50)">
  <rect x="42.5" y="24" rx="6.45" ry="6" width="15" height="12" fill="#28df99">
    <animate attributeName="opacity" values="1;0" keyTimes="0;1" dur="0.8s" begin="-0.6857142857142857s" repeatCount="indefinite"></animate>
  </rect>
</g><g transform="rotate(51.42857142857143 50 50)">
  <rect x="42.5" y="24" rx="6.45" ry="6" width="15" height="12" fill="#28df99">
    <animate attributeName="opacity" values="1;0" keyTimes="0;1" dur="0.8s" begin="-0.6285714285714286s" repeatCount="indefinite"></animate>
  </rect>
</g><g transform="rotate(77.14285714285714 50 50)">
  <rect x="42.5" y="24" rx="6.45" ry="6" width="15" height="12" fill="#28df99">
    <animate attributeName="opacity" values="1;0" keyTimes="0;1" dur="0.8s" begin="-0.5714285714285714s" repeatCount="indefinite"></animate>
  </rect>
</g><g transform="rotate(102.85714285714286 50 50)">
  <rect x="42.5" y="24" rx="6.45" ry="6" width="15" height="12" fill="#28df99">
    <animate attributeName="opacity" values="1;0" keyTimes="0;1" dur="0.8s" begin="-0.5142857142857142s" repeatCount="indefinite"></animate>
  </rect>
</g><g transform="rotate(128.57142857142858 50 50)">
  <rect x="42.5" y="24" rx="6.45" ry="6" width="15" height="12" fill="#28df99">
    <animate attributeName="opacity" values="1;0" keyTimes="0;1" dur="0.8s" begin="-0.45714285714285713s" repeatCount="indefinite"></animate>
  </rect>
</g><g transform="rotate(154.28571428571428 50 50)">
  <rect x="42.5" y="24" rx="6.45" ry="6" width="15" height="12" fill="#28df99">
    <animate attributeName="opacity" values="1;0" keyTimes="0;1" dur="0.8s" begin="-0.4s" repeatCount="indefinite"></animate>
  </rect>
</g><g transform="rotate(180 50 50)">
  <rect x="42.5" y="24" rx="6.45" ry="6" width="15" height="12" fill="#28df99">
    <animate attributeName="opacity" values="1;0" keyTimes="0;1" dur="0.8s" begin="-0.34285714285714286s" repeatCount="indefinite"></animate>
  </rect>
</g><g transform="rotate(205.71428571428572 50 50)">
  <rect x="42.5" y="24" rx="6.45" ry="6" width="15" height="12" fill="#28df99">
    <animate attributeName="opacity" values="1;0" keyTimes="0;1" dur="0.8s" begin="-0.2857142857142857s" repeatCount="indefinite"></animate>
  </rect>
</g><g transform="rotate(231.42857142857142 50 50)">
  <rect x="42.5" y="24" rx="6.45" ry="6" width="15" height="12" fill="#28df99">
    <animate attributeName="opacity" values="1;0" keyTimes="0;1" dur="0.8s" begin="-0.22857142857142856s" repeatCount="indefinite"></animate>
  </rect>
</g><g transform="rotate(257.14285714285717 50 50)">
  <rect x="42.5" y="24" rx="6.45" ry="6" width="15" height="12" fill="#28df99">
    <animate attributeName="opacity" values="1;0" keyTimes="0;1" dur="0.8s" begin="-0.17142857142857143s" repeatCount="indefinite"></animate>
  </rect>
</g><g transform="rotate(282.85714285714283 50 50)">
  <rect x="42.5" y="24" rx="6.45" ry="6" width="15" height="12" fill="#28df99">
    <animate attributeName="opacity" values="1;0" keyTimes="0;1" dur="0.8s" begin="-0.11428571428571428s" repeatCount="indefinite"></animate>
  </rect>
</g><g transform="rotate(308.57142857142856 50 50)">
  <rect x="42.5" y="24" rx="6.45" ry="6" width="15" height="12" fill="#28df99">
    <animate attributeName="opacity" values="1;0" keyTimes="0;1" dur="0.8s" begin="-0.05714285714285714s" repeatCount="indefinite"></animate>
  </rect>
</g><g transform="rotate(334.2857142857143 50 50)">
  <rect x="42.5" y="24" rx="6.45" ry="6" width="15" height="12" fill="#28df99">
    <animate attributeName="opacity" values="1;0" keyTimes="0;1" dur="0.8s" begin="0s" repeatCount="indefinite"></animate>
  </rect>
</g>
<!-- [ldio] generated by https://loading.io/ --></svg>